<?xml version="1.0" encoding="UTF-8"?>
<!DOCTYPE svg PUBLIC "-//W3C//DTD SVG 1.1//EN" "http://www.w3.org/Graphics/SVG/1.1/DTD/svg11.dtd">
<svg xmlns="http://www.w3.org/2000/svg" version="1.1" width="924px" height="706px" style="shape-rendering:geometricPrecision; text-rendering:geometricPrecision; image-rendering:optimizeQuality; fill-rule:evenodd; clip-rule:evenodd" xmlns:xlink="http://www.w3.org/1999/xlink">
<g><path style="opacity:1" fill="#fefefe" d="M -0.5,-0.5 C 307.5,-0.5 615.5,-0.5 923.5,-0.5C 923.5,234.833 923.5,470.167 923.5,705.5C 615.5,705.5 307.5,705.5 -0.5,705.5C -0.5,470.167 -0.5,234.833 -0.5,-0.5 Z"/></g>
<g><path style="opacity:1" fill="#e74829" d="M 221.5,7.5 C 234.833,7.5 248.167,7.5 261.5,7.5C 261.5,20.8333 261.5,34.1667 261.5,47.5C 248.167,47.5 234.833,47.5 221.5,47.5C 221.5,34.1667 221.5,20.8333 221.5,7.5 Z"/></g>
<g><path style="opacity:1" fill="#161616" d="M 162.5,13.5 C 163.5,13.5 164.5,13.5 165.5,13.5C 165.5,21.5 165.5,29.5 165.5,37.5C 164.5,37.5 163.5,37.5 162.5,37.5C 162.5,29.5 162.5,21.5 162.5,13.5 Z"/></g>
<g><path style="opacity:1" fill="#151515" d="M 23.5,14.5 C 29.5,14.5 35.5,14.5 41.5,14.5C 41.5,15.5 41.5,16.5 41.5,17.5C 38.8333,17.5 36.1667,17.5 33.5,17.5C 33.5,24.1667 33.5,30.8333 33.5,37.5C 32.5,37.5 31.5,37.5 30.5,37.5C 30.5,30.8333 30.5,24.1667 30.5,17.5C 28.1667,17.5 25.8333,17.5 23.5,17.5C 23.5,16.5 23.5,15.5 23.5,14.5 Z"/></g>
<g><path style="opacity:1" fill="#181818" d="M 128.5,14.5 C 135.542,12.9036 139.542,15.5703 140.5,22.5C 139.5,22.5 138.5,22.5 137.5,22.5C 137.703,20.6096 137.037,19.1096 135.5,18C 132.001,16.8799 129.167,17.7132 127,20.5C 126.333,23.8333 126.333,27.1667 127,30.5C 128.691,34.2127 131.525,35.3794 135.5,34C 135.793,30.9056 137.459,29.4056 140.5,29.5C 139.318,36.2668 135.318,38.7668 128.5,37C 127.069,36.5348 125.903,35.7014 125,34.5C 123.445,29.6178 123.112,24.6178 124,19.5C 125.025,17.313 126.525,15.6464 128.5,14.5 Z"/></g>
<g><path style="opacity:1" fill="#111111" d="M 106.5,16.5 C 107.5,16.5 108.5,16.5 109.5,16.5C 109.5,17.8333 109.5,19.1667 109.5,20.5C 113.5,21.1667 113.5,21.8333 109.5,22.5C 109.5,26.5 109.5,30.5 109.5,34.5C 110.5,34.5 111.5,34.5 112.5,34.5C 112.5,35.5 112.5,36.5 112.5,37.5C 110.533,37.7394 108.699,37.4061 107,36.5C 106.667,32.1667 106.333,27.8333 106,23.5C 102.534,21.8194 102.7,20.8194 106.5,20.5C 106.5,19.1667 106.5,17.8333 106.5,16.5 Z"/></g>
<g><path style="opacity:1" fill="#151515" d="M 44.5,20.5 C 48.6034,19.7691 52.1034,20.7691 55,23.5C 55.4992,28.1548 55.6658,32.8215 55.5,37.5C 51.9209,37.0804 48.2542,36.9138 44.5,37C 40.673,33.9053 40.673,30.9053 44.5,28C 46.8098,27.5034 49.1432,27.3367 51.5,27.5C 52.1584,23.3228 50.4918,21.8228 46.5,23C 45.2964,25.2771 43.6297,25.7771 41.5,24.5C 42.5244,23.1482 43.5244,21.8149 44.5,20.5 Z"/></g>
<g><path style="opacity:1" fill="#0d0d0d" d="M 59.5,20.5 C 62.3463,21.0946 65.3463,21.0946 68.5,20.5C 68.5,21.5 68.5,22.5 68.5,23.5C 66.2341,23.1412 64.4007,23.8078 63,25.5C 62.5012,29.4862 62.3345,33.4862 62.5,37.5C 61.5,37.5 60.5,37.5 59.5,37.5C 59.5,31.8333 59.5,26.1667 59.5,20.5 Z"/></g>
<g><path style="opacity:1" fill="#0e0e0e" d="M 72.5,20.5 C 75.9521,20.8197 79.2855,20.8197 82.5,20.5C 83.6642,27.1418 83.8309,33.8085 83,40.5C 80.0913,43.3939 76.5913,44.2272 72.5,43C 70.4407,41.8145 70.274,40.6479 72,39.5C 75.5673,42.5627 78.4006,42.0627 80.5,38C 80.3333,37.5 80.1667,37 80,36.5C 75.272,38.6035 71.9387,37.2702 70,32.5C 68.888,28.0186 69.7213,24.0186 72.5,20.5 Z"/></g>
<g><path style="opacity:1" fill="#101010" d="M 91.5,20.5 C 98.6699,19.3392 102.003,22.3392 101.5,29.5C 97.8333,29.5 94.1667,29.5 90.5,29.5C 91.1742,34.1514 93.8408,35.6514 98.5,34C 99.7312,32.0325 100.731,32.1992 101.5,34.5C 96.7128,38.7471 92.2128,38.4138 88,33.5C 86.5386,28.2836 87.7053,23.9503 91.5,20.5 Z"/></g>
<g><path style="opacity:1" fill="#1a1a1a" d="M 147.5,20.5 C 154.73,18.9073 158.73,21.7407 159.5,29C 158.602,36.1251 154.602,38.7917 147.5,37C 142.193,31.4284 142.193,25.9284 147.5,20.5 Z"/></g>
<g><path style="opacity:1" fill="#1a1a1a" d="M 173.5,20.5 C 180.73,18.9073 184.73,21.7407 185.5,29C 184.602,36.1251 180.602,38.7917 173.5,37C 168.193,31.4284 168.193,25.9284 173.5,20.5 Z"/></g>
<g><path style="opacity:1" fill="#0d0d0d" d="M 188.5,20.5 C 191.346,21.0946 194.346,21.0946 197.5,20.5C 197.5,21.5 197.5,22.5 197.5,23.5C 195.234,23.1412 193.401,23.8078 192,25.5C 191.501,29.4862 191.334,33.4862 191.5,37.5C 190.5,37.5 189.5,37.5 188.5,37.5C 188.5,31.8333 188.5,26.1667 188.5,20.5 Z"/></g>
<g><path style="opacity:1" fill="#010101" d="M 199.5,20.5 C 200.5,20.5 201.5,20.5 202.5,20.5C 202.5,21.5 202.5,22.5 202.5,23.5C 201.5,23.5 200.5,23.5 199.5,23.5C 199.5,22.5 199.5,21.5 199.5,20.5 Z"/></g>
<g><path style="opacity:1" fill="#f5f5f5" d="M 75.5,22.5 C 77.3904,22.2965 78.8904,22.9632 80,24.5C 80.7835,27.7603 80.6168,30.9269 79.5,34C 73.4809,34.5379 71.3142,31.7045 73,25.5C 74.045,24.6266 74.8783,23.6266 75.5,22.5 Z"/></g>
<g><path style="opacity:1" fill="#dcdcdc" d="M 93.5,22.5 C 96.8333,22.5 98.5,24.1667 98.5,27.5C 95.7531,27.8134 93.0865,27.48 90.5,26.5C 91.5244,25.1482 92.5244,23.8149 93.5,22.5 Z"/></g>
<g><path style="opacity:1" fill="#f0f0f0" d="M 149.5,22.5 C 151.722,22.178 153.556,22.8446 155,24.5C 156.004,27.9926 155.504,31.1592 153.5,34C 147.808,34.8433 145.641,32.3433 147,26.5C 147.662,25.0161 148.496,23.6828 149.5,22.5 Z"/></g>
<g><path style="opacity:1" fill="#f0f0f0" d="M 175.5,22.5 C 177.722,22.178 179.556,22.8446 181,24.5C 182.004,27.9926 181.504,31.1592 179.5,34C 173.808,34.8433 171.641,32.3433 173,26.5C 173.662,25.0161 174.496,23.6828 175.5,22.5 Z"/></g>
<g><path style="opacity:1" fill="#eaeaea" d="M 46.5,29.5 C 48.604,29.2011 50.604,29.5344 52.5,30.5C 50.6705,34.864 48.0039,35.5307 44.5,32.5C 45.1925,31.4822 45.8592,30.4822 46.5,29.5 Z"/></g>
<g><path style="opacity:1" fill="#0a0a0a" d="M 199.5,34.5 C 200.5,34.5 201.5,34.5 202.5,34.5C 202.5,35.5 202.5,36.5 202.5,37.5C 201.5,37.5 200.5,37.5 199.5,37.5C 199.5,36.5 199.5,35.5 199.5,34.5 Z"/></g>
<g><path style="opacity:1" fill="#bb401d" d="M 237.5,79.5 C 250.833,79.5 264.167,79.5 277.5,79.5C 277.5,92.8333 277.5,106.167 277.5,119.5C 264.167,119.5 250.833,119.5 237.5,119.5C 237.5,106.167 237.5,92.8333 237.5,79.5 Z"/></g>
<g><path style="opacity:1" fill="#101010" d="M 308.5,82.5 C 310.776,84.3306 312.609,86.6639 314,89.5C 316.785,95.573 319.952,101.406 323.5,107C 323.167,107.333 322.833,107.667 322.5,108C 313.338,108.968 304.338,108.635 295.5,107C 300.122,98.9504 304.455,90.7837 308.5,82.5 Z"/></g>
<g><path style="opacity:1" fill="#161616" d="M 45.5,85.5 C 46.5,85.5 47.5,85.5 48.5,85.5C 48.5,93.5 48.5,101.5 48.5,109.5C 47.5,109.5 46.5,109.5 45.5,109.5C 45.5,101.5 45.5,93.5 45.5,85.5 Z"/></g>
<g><path style="opacity:1" fill="#000000" d="M 179.5,85.5 C 180.5,85.5 181.5,85.5 182.5,85.5C 182.5,93.5 182.5,101.5 182.5,109.5C 181.5,109.5 180.5,109.5 179.5,109.5C 179.5,101.5 179.5,93.5 179.5,85.5 Z"/></g>
<g><path style="opacity:1" fill="#181818" d="M 29.5,86.5 C 32.9783,86.1842 36.3117,86.6842 39.5,88C 41.1554,89.4443 41.822,91.2776 41.5,93.5C 30.8317,86.2886 26.3317,89.2886 28,102.5C 29.6912,106.213 32.5245,107.379 36.5,106C 38.0368,104.89 38.7035,103.39 38.5,101.5C 43.0001,101.219 43.8335,102.886 41,106.5C 35.6426,110.787 30.6426,110.453 26,105.5C 23.1447,98.3089 24.3114,91.9756 29.5,86.5 Z"/></g>
<g><path style="opacity:1" fill="#1c1c1c" d="M 144.5,86.5 C 151.958,84.4291 156.291,87.0957 157.5,94.5C 156.167,94.5 154.833,94.5 153.5,94.5C 153.714,92.8561 153.38,91.3561 152.5,90C 145.48,88.0166 142.48,90.6833 143.5,98C 142.48,105.317 145.48,107.983 152.5,106C 153.167,104.667 153.833,103.333 154.5,102C 155.635,101.251 156.635,101.417 157.5,102.5C 155.426,108.871 151.092,111.038 144.5,109C 138.016,101.381 138.016,93.8811 144.5,86.5 Z"/></g>
<g><path style="opacity:1" fill="#131313" d="M 338.5,109.5 C 338.5,103.167 338.5,96.8333 338.5,90.5C 337.209,90.2627 336.209,90.596 335.5,91.5C 332.569,92.9559 331.902,92.1226 333.5,89C 336.022,87.6591 338.689,86.8257 341.5,86.5C 341.5,94.1667 341.5,101.833 341.5,109.5C 340.5,109.5 339.5,109.5 338.5,109.5 Z"/></g>
<g><path style="opacity:1" fill="#131313" d="M 356.5,109.5 C 356.5,103.167 356.5,96.8333 356.5,90.5C 355.209,90.2627 354.209,90.596 353.5,91.5C 350.569,92.9559 349.902,92.1226 351.5,89C 354.022,87.6591 356.689,86.8257 359.5,86.5C 359.5,94.1667 359.5,101.833 359.5,109.5C 358.5,109.5 357.5,109.5 356.5,109.5 Z"/></g>
<g><path style="opacity:1" fill="#151515" d="M 378.5,86.5 C 387.916,85.0812 391.083,88.7478 388,97.5C 385.872,100.63 383.372,103.463 380.5,106C 384.152,106.499 387.818,106.665 391.5,106.5C 391.5,107.5 391.5,108.5 391.5,109.5C 386.167,109.5 380.833,109.5 375.5,109.5C 376.949,105.528 379.449,102.194 383,99.5C 384.633,97.5471 385.799,95.3804 386.5,93C 385.398,88.188 382.898,87.3547 379,90.5C 378.517,91.448 378.351,92.448 378.5,93.5C 377.5,93.5 376.5,93.5 375.5,93.5C 375.15,90.5466 376.15,88.2133 378.5,86.5 Z"/></g>
<g><path style="opacity:1" fill="#181818" d="M 400.5,86.5 C 402.167,86.5 403.833,86.5 405.5,86.5C 405.5,87.5 405.5,88.5 405.5,89.5C 401.526,89.1502 398.86,90.8169 397.5,94.5C 405.999,92.8353 409.499,96.502 408,105.5C 405.487,109.212 401.987,110.378 397.5,109C 391.717,100.536 392.717,93.0364 400.5,86.5 Z"/></g>
<g><path style="opacity:1" fill="#181818" d="M 421.5,86.5 C 423.792,86.2436 425.959,86.5769 428,87.5C 430.35,96.1631 427.683,98.4964 420,94.5C 419.109,91.5024 419.609,88.8357 421.5,86.5 Z"/></g>
<g><path style="opacity:1" fill="#f4f4f4" d="M 309.5,86.5 C 313.392,92.6069 317.059,98.9402 320.5,105.5C 313.167,106.833 305.833,106.833 298.5,105.5C 301.941,98.9402 305.608,92.6069 309.5,86.5 Z"/></g>
<g><path style="opacity:1" fill="#020202" d="M 122.5,88.5 C 123.5,88.5 124.5,88.5 125.5,88.5C 125.5,89.8333 125.5,91.1667 125.5,92.5C 129.5,93.1667 129.5,93.8333 125.5,94.5C 125.334,98.5138 125.501,102.514 126,106.5C 128.683,107.575 128.849,108.575 126.5,109.5C 124.575,109.41 123.408,108.41 123,106.5C 122.501,102.514 122.334,98.5138 122.5,94.5C 118.5,93.8333 118.5,93.1667 122.5,92.5C 122.5,91.1667 122.5,89.8333 122.5,88.5 Z"/></g>
<g><path style="opacity:1" fill="#f3f3f3" d="M 422.5,88.5 C 426.35,88.7007 427.35,90.5341 425.5,94C 424.552,94.4828 423.552,94.6495 422.5,94.5C 422.5,92.5 422.5,90.5 422.5,88.5 Z"/></g>
<g><path style="opacity:1" fill="#1c1c1c" d="M 433.5,88.5 C 434.756,88.4614 435.756,88.9614 436.5,90C 432.662,95.9937 428.662,101.827 424.5,107.5C 424.167,107.167 423.833,106.833 423.5,106.5C 427.291,100.721 430.624,94.7207 433.5,88.5 Z"/></g>
<g><path style="opacity:1" fill="#9a9a9a" d="M 335.5,91.5 C 336.209,90.596 337.209,90.2627 338.5,90.5C 338.5,96.8333 338.5,103.167 338.5,109.5C 338.147,103.265 337.147,97.2645 335.5,91.5 Z"/></g>
<g><path style="opacity:1" fill="#9a9a9a" d="M 353.5,91.5 C 354.209,90.596 355.209,90.2627 356.5,90.5C 356.5,96.8333 356.5,103.167 356.5,109.5C 356.147,103.265 355.147,97.2645 353.5,91.5 Z"/></g>
<g><path style="opacity:1" fill="#1a1a1a" d="M 56.5,92.5 C 63.7295,90.9073 67.7295,93.7407 68.5,101C 67.602,108.125 63.602,110.792 56.5,109C 51.1932,103.428 51.1932,97.9284 56.5,92.5 Z"/></g>
<g><path style="opacity:1" fill="#151515" d="M 73.5,92.5 C 77.6034,91.7691 81.1034,92.7691 84,95.5C 84.5908,96.4835 84.2575,97.1501 83,97.5C 81.2799,96.277 79.4466,95.277 77.5,94.5C 75.7336,94.4342 74.7336,95.2676 74.5,97C 76.7134,99.0814 79.3801,100.415 82.5,101C 85.6928,106.436 84.0261,109.27 77.5,109.5C 73.6425,109.971 71.6425,108.305 71.5,104.5C 73.7468,104.915 75.9135,105.582 78,106.5C 79.6624,106.612 80.8291,105.946 81.5,104.5C 78.4075,102.91 75.2408,101.244 72,99.5C 71.1668,96.829 71.6668,94.4957 73.5,92.5 Z"/></g>
<g><path style="opacity:1" fill="#101010" d="M 91.5,92.5 C 98.6699,91.3392 102.003,94.3392 101.5,101.5C 97.8333,101.5 94.1667,101.5 90.5,101.5C 91.1742,106.151 93.8408,107.651 98.5,106C 99.7312,104.033 100.731,104.199 101.5,106.5C 96.7128,110.747 92.2128,110.414 88,105.5C 86.5386,100.284 87.7053,95.9503 91.5,92.5 Z"/></g>
<g><path style="opacity:1" fill="#131313" d="M 107.5,92.5 C 110.187,92.3359 112.854,92.5026 115.5,93C 117.037,94.1096 117.703,95.6096 117.5,97.5C 115.332,96.8214 113.332,95.8214 111.5,94.5C 108.604,95.0237 107.937,96.5237 109.5,99C 112.149,99.4523 114.649,100.286 117,101.5C 117.867,108.525 114.7,111.025 107.5,109C 105.393,107.736 104.393,105.903 104.5,103.5C 106.359,103.461 107.692,104.294 108.5,106C 110.473,106.495 112.473,106.662 114.5,106.5C 114.67,105.178 114.337,104.011 113.5,103C 105.928,102.318 103.928,98.818 107.5,92.5 Z"/></g>
<g><path style="opacity:1" fill="#121212" d="M 163.5,92.5 C 172.988,91.1634 176.822,95.1634 175,104.5C 172.928,109.143 169.428,110.643 164.5,109C 159.51,103.891 159.177,98.3909 163.5,92.5 Z"/></g>
<g><path style="opacity:1" fill="#121212" d="M 189.5,92.5 C 198.988,91.1634 202.822,95.1634 201,104.5C 198.928,109.143 195.428,110.643 190.5,109C 185.51,103.891 185.177,98.3909 189.5,92.5 Z"/></g>
<g><path style="opacity:1" fill="#121212" d="M 205.5,92.5 C 208.078,93.2541 210.744,93.2541 213.5,92.5C 213.5,93.5 213.5,94.5 213.5,95.5C 211.856,95.2865 210.356,95.6198 209,96.5C 208.501,100.821 208.334,105.154 208.5,109.5C 207.5,109.5 206.5,109.5 205.5,109.5C 205.5,103.833 205.5,98.1667 205.5,92.5 Z"/></g>
<g><path style="opacity:1" fill="#000000" d="M 216.5,92.5 C 217.5,92.5 218.5,92.5 219.5,92.5C 219.5,93.5 219.5,94.5 219.5,95.5C 218.5,95.5 217.5,95.5 216.5,95.5C 216.5,94.5 216.5,93.5 216.5,92.5 Z"/></g>
<g><path style="opacity:1" fill="#f0f0f0" d="M 58.5,94.5 C 60.7224,94.178 62.5557,94.8446 64,96.5C 65.0037,99.9926 64.5037,103.159 62.5,106C 56.808,106.843 54.6413,104.343 56,98.5C 56.6622,97.0161 57.4955,95.6828 58.5,94.5 Z"/></g>
<g><path style="opacity:1" fill="#dcdcdc" d="M 93.5,94.5 C 96.8333,94.5 98.5,96.1667 98.5,99.5C 95.7531,99.8134 93.0865,99.48 90.5,98.5C 91.5244,97.1482 92.5244,95.8149 93.5,94.5 Z"/></g>
<g><path style="opacity:1" fill="#f2f2f2" d="M 165.5,94.5 C 172.698,95.699 174.365,99.5323 170.5,106C 163.999,106.812 161.832,103.979 164,97.5C 164.513,96.4734 165.013,95.4734 165.5,94.5 Z"/></g>
<g><path style="opacity:1" fill="#f2f2f2" d="M 191.5,94.5 C 198.698,95.699 200.365,99.5323 196.5,106C 189.999,106.812 187.832,103.979 190,97.5C 190.513,96.4734 191.013,95.4734 191.5,94.5 Z"/></g>
<g><path style="opacity:1" fill="#f5f5f5" d="M 398.5,97.5 C 405.486,97.331 407.153,100.164 403.5,106C 401.299,106.825 399.466,106.325 398,104.5C 397.297,102.071 397.463,99.7375 398.5,97.5 Z"/></g>
<g><path style="opacity:1" fill="#1e1e1e" d="M 432.5,99.5 C 440.44,98.9375 442.44,102.104 438.5,109C 430.424,109.805 428.424,106.638 432.5,99.5 Z"/></g>
<g><path style="opacity:1" fill="#efefef" d="M 433.5,101.5 C 434.833,101.5 436.167,101.5 437.5,101.5C 438.401,105.241 437.068,107.241 433.5,107.5C 433.5,105.5 433.5,103.5 433.5,101.5 Z"/></g>
<g><path style="opacity:1" fill="#0a0a0a" d="M 216.5,106.5 C 217.5,106.5 218.5,106.5 219.5,106.5C 219.5,107.5 219.5,108.5 219.5,109.5C 218.5,109.5 217.5,109.5 216.5,109.5C 216.5,108.5 216.5,107.5 216.5,106.5 Z"/></g>
<g><path style="opacity:1" fill="#0b0b0b" d="M 368.5,106.5 C 369.5,106.5 370.5,106.5 371.5,106.5C 371.5,107.5 371.5,108.5 371.5,109.5C 370.5,109.5 369.5,109.5 368.5,109.5C 368.5,108.5 368.5,107.5 368.5,106.5 Z"/></g>
<g><path style="opacity:1" fill="#050505" d="M 87.5,217.5 C 104.979,216.812 113.146,225.145 112,242.5C 107.835,253.984 99.6679,258.817 87.5,257C 76.0159,252.835 71.1826,244.668 73,232.5C 75.3509,224.984 80.1842,219.984 87.5,217.5 Z"/></g>
<g><path style="opacity:1" fill="#050505" d="M 136.5,217.5 C 153.979,216.812 162.146,225.145 161,242.5C 156.835,253.984 148.668,258.817 136.5,257C 125.016,252.835 120.183,244.668 122,232.5C 124.351,224.984 129.184,219.984 136.5,217.5 Z"/></g>
<g><path style="opacity:1" fill="#050505" d="M 184.5,217.5 C 201.979,216.812 210.146,225.145 209,242.5C 204.835,253.984 196.668,258.817 184.5,257C 173.016,252.835 168.183,244.668 170,232.5C 172.351,224.984 177.184,219.984 184.5,217.5 Z"/></g>
<g><path style="opacity:1" fill="#050505" d="M 232.5,217.5 C 249.979,216.812 258.146,225.145 257,242.5C 252.835,253.984 244.668,258.817 232.5,257C 221.016,252.835 216.183,244.668 218,232.5C 220.351,224.984 225.184,219.984 232.5,217.5 Z"/></g>
<g><path style="opacity:1" fill="#050505" d="M 281.5,217.5 C 298.979,216.812 307.146,225.145 306,242.5C 301.835,253.984 293.668,258.817 281.5,257C 270.016,252.835 265.183,244.668 267,232.5C 269.351,224.984 274.184,219.984 281.5,217.5 Z"/></g>
<g><path style="opacity:1" fill="#050505" d="M 329.5,217.5 C 346.979,216.812 355.146,225.145 354,242.5C 349.835,253.984 341.668,258.817 329.5,257C 318.016,252.835 313.183,244.668 315,232.5C 317.351,224.984 322.184,219.984 329.5,217.5 Z"/></g>
<g><path style="opacity:1" fill="#ef8635" d="M 378.5,217.5 C 396,216.832 404.167,225.166 403,242.5C 398.835,253.984 390.668,258.817 378.5,257C 367.016,252.835 362.183,244.668 364,232.5C 366.351,224.984 371.184,219.984 378.5,217.5 Z"/></g>
<g><path style="opacity:1" fill="#ea3726" d="M 426.5,217.5 C 444,216.832 452.167,225.166 451,242.5C 446.835,253.984 438.668,258.817 426.5,257C 415.016,252.835 410.183,244.668 412,232.5C 414.351,224.984 419.184,219.984 426.5,217.5 Z"/></g>
<g><path style="opacity:1" fill="#0e08f5" d="M 474.5,217.5 C 493.809,217.303 501.642,226.637 498,245.5C 492.107,256.19 483.273,259.69 471.5,256C 460.81,250.107 457.31,241.273 461,229.5C 463.85,223.514 468.35,219.514 474.5,217.5 Z"/></g>
<g><path style="opacity:1" fill="#050505" d="M 523.5,217.5 C 540.979,216.812 549.146,225.145 548,242.5C 543.835,253.984 535.668,258.817 523.5,257C 512.016,252.835 507.183,244.668 509,232.5C 511.351,224.984 516.184,219.984 523.5,217.5 Z"/></g>
<g><path style="opacity:1" fill="#050505" d="M 571.5,217.5 C 588.979,216.812 597.146,225.145 596,242.5C 591.835,253.984 583.668,258.817 571.5,257C 560.016,252.835 555.183,244.668 557,232.5C 559.351,224.984 564.184,219.984 571.5,217.5 Z"/></g>
<g><path style="opacity:1" fill="#050505" d="M 620.5,217.5 C 637.979,216.812 646.146,225.145 645,242.5C 640.835,253.984 632.668,258.817 620.5,257C 609.016,252.835 604.183,244.668 606,232.5C 608.351,224.984 613.184,219.984 620.5,217.5 Z"/></g>
<g><path style="opacity:1" fill="#050505" d="M 668.5,217.5 C 685.979,216.812 694.146,225.145 693,242.5C 688.835,253.984 680.668,258.817 668.5,257C 657.016,252.835 652.183,244.668 654,232.5C 656.351,224.984 661.184,219.984 668.5,217.5 Z"/></g>
<g><path style="opacity:1" fill="#050505" d="M 716.5,217.5 C 733.979,216.812 742.146,225.145 741,242.5C 736.835,253.984 728.668,258.817 716.5,257C 705.016,252.835 700.183,244.668 702,232.5C 704.351,224.984 709.184,219.984 716.5,217.5 Z"/></g>
<g><path style="opacity:1" fill="#050505" d="M 765.5,217.5 C 782.979,216.812 791.146,225.145 790,242.5C 785.835,253.984 777.668,258.817 765.5,257C 754.016,252.835 749.183,244.668 751,232.5C 753.351,224.984 758.184,219.984 765.5,217.5 Z"/></g>
<g><path style="opacity:1" fill="#050505" d="M 813.5,217.5 C 830.979,216.812 839.146,225.145 838,242.5C 833.835,253.984 825.668,258.817 813.5,257C 802.016,252.835 797.183,244.668 799,232.5C 801.351,224.984 806.184,219.984 813.5,217.5 Z"/></g>
<g><path style="opacity:1" fill="#050505" d="M 39.5,261.5 C 56.9793,260.812 65.146,269.145 64,286.5C 59.8345,297.984 51.6679,302.817 39.5,301C 28.0159,296.835 23.1826,288.668 25,276.5C 27.3509,268.984 32.1842,263.984 39.5,261.5 Z"/></g>
<g><path style="opacity:1" fill="#050505" d="M 859.5,261.5 C 876.979,260.812 885.146,269.145 884,286.5C 879.835,297.984 871.668,302.817 859.5,301C 848.016,296.835 843.183,288.668 845,276.5C 847.351,268.984 852.184,263.984 859.5,261.5 Z"/></g>
<g><path style="opacity:1" fill="#000000" d="M 74.5,263.5 C 87.8333,263.5 101.167,263.5 114.5,263.5C 114.5,276.833 114.5,290.167 114.5,303.5C 101.167,303.5 87.8333,303.5 74.5,303.5C 74.5,290.167 74.5,276.833 74.5,263.5 Z"/></g>
<g><path style="opacity:1" fill="#000000" d="M 122.5,263.5 C 135.833,263.5 149.167,263.5 162.5,263.5C 162.5,276.833 162.5,290.167 162.5,303.5C 149.167,303.5 135.833,303.5 122.5,303.5C 122.5,290.167 122.5,276.833 122.5,263.5 Z"/></g>
<g><path style="opacity:1" fill="#000000" d="M 170.5,263.5 C 183.833,263.5 197.167,263.5 210.5,263.5C 210.5,276.833 210.5,290.167 210.5,303.5C 197.167,303.5 183.833,303.5 170.5,303.5C 170.5,290.167 170.5,276.833 170.5,263.5 Z"/></g>
<g><path style="opacity:1" fill="#000000" d="M 218.5,263.5 C 231.833,263.5 245.167,263.5 258.5,263.5C 258.5,276.833 258.5,290.167 258.5,303.5C 245.167,303.5 231.833,303.5 218.5,303.5C 218.5,290.167 218.5,276.833 218.5,263.5 Z"/></g>
<g><path style="opacity:1" fill="#000000" d="M 266.5,263.5 C 279.833,263.5 293.167,263.5 306.5,263.5C 306.5,276.833 306.5,290.167 306.5,303.5C 293.167,303.5 279.833,303.5 266.5,303.5C 266.5,290.167 266.5,276.833 266.5,263.5 Z"/></g>
<g><path style="opacity:1" fill="#000000" d="M 314.5,263.5 C 327.833,263.5 341.167,263.5 354.5,263.5C 354.5,276.833 354.5,290.167 354.5,303.5C 341.167,303.5 327.833,303.5 314.5,303.5C 314.5,290.167 314.5,276.833 314.5,263.5 Z"/></g>
<g><path style="opacity:1" fill="#be6a25" d="M 362.5,263.5 C 375.833,263.5 389.167,263.5 402.5,263.5C 402.5,276.833 402.5,290.167 402.5,303.5C 389.167,303.5 375.833,303.5 362.5,303.5C 362.5,290.167 362.5,276.833 362.5,263.5 Z"/></g>
<g><path style="opacity:1" fill="#bb401d" d="M 410.5,263.5 C 423.833,263.5 437.167,263.5 450.5,263.5C 450.5,276.833 450.5,290.167 450.5,303.5C 437.167,303.5 423.833,303.5 410.5,303.5C 410.5,290.167 410.5,276.833 410.5,263.5 Z"/></g>
<g><path style="opacity:1" fill="#0000c4" d="M 458.5,263.5 C 471.833,263.5 485.167,263.5 498.5,263.5C 498.5,276.833 498.5,290.167 498.5,303.5C 485.167,303.5 471.833,303.5 458.5,303.5C 458.5,290.167 458.5,276.833 458.5,263.5 Z"/></g>
<g><path style="opacity:1" fill="#000000" d="M 506.5,263.5 C 519.833,263.5 533.167,263.5 546.5,263.5C 546.5,276.833 546.5,290.167 546.5,303.5C 533.167,303.5 519.833,303.5 506.5,303.5C 506.5,290.167 506.5,276.833 506.5,263.5 Z"/></g>
<g><path style="opacity:1" fill="#000000" d="M 554.5,263.5 C 567.833,263.5 581.167,263.5 594.5,263.5C 594.5,276.833 594.5,290.167 594.5,303.5C 581.167,303.5 567.833,303.5 554.5,303.5C 554.5,290.167 554.5,276.833 554.5,263.5 Z"/></g>
<g><path style="opacity:1" fill="#000000" d="M 602.5,263.5 C 615.833,263.5 629.167,263.5 642.5,263.5C 642.5,276.833 642.5,290.167 642.5,303.5C 629.167,303.5 615.833,303.5 602.5,303.5C 602.5,290.167 602.5,276.833 602.5,263.5 Z"/></g>
<g><path style="opacity:1" fill="#000000" d="M 650.5,263.5 C 663.833,263.5 677.167,263.5 690.5,263.5C 690.5,276.833 690.5,290.167 690.5,303.5C 677.167,303.5 663.833,303.5 650.5,303.5C 650.5,290.167 650.5,276.833 650.5,263.5 Z"/></g>
<g><path style="opacity:1" fill="#000000" d="M 698.5,263.5 C 711.833,263.5 725.167,263.5 738.5,263.5C 738.5,276.833 738.5,290.167 738.5,303.5C 725.167,303.5 711.833,303.5 698.5,303.5C 698.5,290.167 698.5,276.833 698.5,263.5 Z"/></g>
<g><path style="opacity:1" fill="#000000" d="M 746.5,263.5 C 759.833,263.5 773.167,263.5 786.5,263.5C 786.5,276.833 786.5,290.167 786.5,303.5C 773.167,303.5 759.833,303.5 746.5,303.5C 746.5,290.167 746.5,276.833 746.5,263.5 Z"/></g>
<g><path style="opacity:1" fill="#000000" d="M 794.5,263.5 C 807.833,263.5 821.167,263.5 834.5,263.5C 834.5,276.833 834.5,290.167 834.5,303.5C 821.167,303.5 807.833,303.5 794.5,303.5C 794.5,290.167 794.5,276.833 794.5,263.5 Z"/></g>
<g><path style="opacity:1" fill="#bd4321" d="M 39.5,309.5 C 57.0002,308.832 65.1669,317.166 64,334.5C 59.8345,345.984 51.6679,350.817 39.5,349C 28.0159,344.835 23.1826,336.668 25,324.5C 27.3509,316.984 32.1842,311.984 39.5,309.5 Z"/></g>
<g><path style="opacity:1" fill="#050505" d="M 859.5,309.5 C 876.979,308.812 885.146,317.145 884,334.5C 879.835,345.984 871.668,350.817 859.5,349C 848.016,344.835 843.183,336.668 845,324.5C 847.351,316.984 852.184,311.984 859.5,309.5 Z"/></g>
<g><path style="opacity:1" fill="#b03d1a" d="M 74.5,311.5 C 87.8333,311.5 101.167,311.5 114.5,311.5C 114.5,324.833 114.5,338.167 114.5,351.5C 101.167,351.5 87.8333,351.5 74.5,351.5C 74.5,338.167 74.5,324.833 74.5,311.5 Z"/></g>
<g><path style="opacity:1" fill="#a53918" d="M 122.5,311.5 C 135.833,311.5 149.167,311.5 162.5,311.5C 162.5,324.833 162.5,338.167 162.5,351.5C 149.167,351.5 135.833,351.5 122.5,351.5C 122.5,338.167 122.5,324.833 122.5,311.5 Z"/></g>
<g><path style="opacity:1" fill="#9a3516" d="M 170.5,311.5 C 183.833,311.5 197.167,311.5 210.5,311.5C 210.5,324.833 210.5,338.167 210.5,351.5C 197.167,351.5 183.833,351.5 170.5,351.5C 170.5,338.167 170.5,324.833 170.5,311.5 Z"/></g>
<g><path style="opacity:1" fill="#8f3113" d="M 218.5,311.5 C 231.833,311.5 245.167,311.5 258.5,311.5C 258.5,324.833 258.5,338.167 258.5,351.5C 245.167,351.5 231.833,351.5 218.5,351.5C 218.5,338.167 218.5,324.833 218.5,311.5 Z"/></g>
<g><path style="opacity:1" fill="#832d11" d="M 266.5,311.5 C 279.833,311.5 293.167,311.5 306.5,311.5C 306.5,324.833 306.5,338.167 306.5,351.5C 293.167,351.5 279.833,351.5 266.5,351.5C 266.5,338.167 266.5,324.833 266.5,311.5 Z"/></g>
<g><path style="opacity:1" fill="#78290f" d="M 314.5,311.5 C 327.833,311.5 341.167,311.5 354.5,311.5C 354.5,324.833 354.5,338.167 354.5,351.5C 341.167,351.5 327.833,351.5 314.5,351.5C 314.5,338.167 314.5,324.833 314.5,311.5 Z"/></g>
<g><path style="opacity:1" fill="#ec6c2c" d="M 362.5,311.5 C 375.833,311.5 389.167,311.5 402.5,311.5C 402.5,324.833 402.5,338.167 402.5,351.5C 389.167,351.5 375.833,351.5 362.5,351.5C 362.5,338.167 362.5,324.833 362.5,311.5 Z"/></g>
<g><path style="opacity:1" fill="#ee8531" d="M 410.5,311.5 C 423.833,311.5 437.167,311.5 450.5,311.5C 450.5,324.833 450.5,338.167 450.5,351.5C 437.167,351.5 423.833,351.5 410.5,351.5C 410.5,338.167 410.5,324.833 410.5,311.5 Z"/></g>
<g><path style="opacity:1" fill="#571e93" d="M 458.5,311.5 C 471.833,311.5 485.167,311.5 498.5,311.5C 498.5,324.833 498.5,338.167 498.5,351.5C 485.167,351.5 471.833,351.5 458.5,351.5C 458.5,338.167 458.5,324.833 458.5,311.5 Z"/></g>
<g><path style="opacity:1" fill="#4c1a06" d="M 506.5,311.5 C 519.833,311.5 533.167,311.5 546.5,311.5C 546.5,324.833 546.5,338.167 546.5,351.5C 533.167,351.5 519.833,351.5 506.5,351.5C 506.5,338.167 506.5,324.833 506.5,311.5 Z"/></g>
<g><path style="opacity:1" fill="#411604" d="M 554.5,311.5 C 567.833,311.5 581.167,311.5 594.5,311.5C 594.5,324.833 594.5,338.167 594.5,351.5C 581.167,351.5 567.833,351.5 554.5,351.5C 554.5,338.167 554.5,324.833 554.5,311.5 Z"/></g>
<g><path style="opacity:1" fill="#361203" d="M 602.5,311.5 C 615.833,311.5 629.167,311.5 642.5,311.5C 642.5,324.833 642.5,338.167 642.5,351.5C 629.167,351.5 615.833,351.5 602.5,351.5C 602.5,338.167 602.5,324.833 602.5,311.5 Z"/></g>
<g><path style="opacity:1" fill="#2b0e02" d="M 650.5,311.5 C 663.833,311.5 677.167,311.5 690.5,311.5C 690.5,324.833 690.5,338.167 690.5,351.5C 677.167,351.5 663.833,351.5 650.5,351.5C 650.5,338.167 650.5,324.833 650.5,311.5 Z"/></g>
<g><path style="opacity:1" fill="#200b01" d="M 698.5,311.5 C 711.833,311.5 725.167,311.5 738.5,311.5C 738.5,324.833 738.5,338.167 738.5,351.5C 725.167,351.5 711.833,351.5 698.5,351.5C 698.5,338.167 698.5,324.833 698.5,311.5 Z"/></g>
<g><path style="opacity:1" fill="#150700" d="M 746.5,311.5 C 759.833,311.5 773.167,311.5 786.5,311.5C 786.5,324.833 786.5,338.167 786.5,351.5C 773.167,351.5 759.833,351.5 746.5,351.5C 746.5,338.167 746.5,324.833 746.5,311.5 Z"/></g>
<g><path style="opacity:1" fill="#090300" d="M 794.5,311.5 C 807.833,311.5 821.167,311.5 834.5,311.5C 834.5,324.833 834.5,338.167 834.5,351.5C 821.167,351.5 807.833,351.5 794.5,351.5C 794.5,338.167 794.5,324.833 794.5,311.5 Z"/></g>
<g><path style="opacity:1" fill="#050505" d="M 39.5,357.5 C 56.9793,356.812 65.146,365.145 64,382.5C 59.8345,393.984 51.6679,398.817 39.5,397C 28.0159,392.835 23.1826,384.668 25,372.5C 27.3509,364.984 32.1842,359.984 39.5,357.5 Z"/></g>
<g><path style="opacity:1" fill="#050505" d="M 859.5,357.5 C 876.979,356.812 885.146,365.145 884,382.5C 879.835,393.984 871.668,398.817 859.5,397C 848.016,392.835 843.183,384.668 845,372.5C 847.351,364.984 852.184,359.984 859.5,357.5 Z"/></g>
<g><path style="opacity:1" fill="#000000" d="M 74.5,359.5 C 87.8333,359.5 101.167,359.5 114.5,359.5C 114.5,372.833 114.5,386.167 114.5,399.5C 101.167,399.5 87.8333,399.5 74.5,399.5C 74.5,386.167 74.5,372.833 74.5,359.5 Z"/></g>
<g><path style="opacity:1" fill="#000000" d="M 122.5,359.5 C 135.833,359.5 149.167,359.5 162.5,359.5C 162.5,372.833 162.5,386.167 162.5,399.5C 149.167,399.5 135.833,399.5 122.5,399.5C 122.5,386.167 122.5,372.833 122.5,359.5 Z"/></g>
<g><path style="opacity:1" fill="#000000" d="M 170.5,359.5 C 183.833,359.5 197.167,359.5 210.5,359.5C 210.5,372.833 210.5,386.167 210.5,399.5C 197.167,399.5 183.833,399.5 170.5,399.5C 170.5,386.167 170.5,372.833 170.5,359.5 Z"/></g>
<g><path style="opacity:1" fill="#000000" d="M 218.5,359.5 C 231.833,359.5 245.167,359.5 258.5,359.5C 258.5,372.833 258.5,386.167 258.5,399.5C 245.167,399.5 231.833,399.5 218.5,399.5C 218.5,386.167 218.5,372.833 218.5,359.5 Z"/></g>
<g><path style="opacity:1" fill="#000000" d="M 266.5,359.5 C 279.833,359.5 293.167,359.5 306.5,359.5C 306.5,372.833 306.5,386.167 306.5,399.5C 293.167,399.5 279.833,399.5 266.5,399.5C 266.5,386.167 266.5,372.833 266.5,359.5 Z"/></g>
<g><path style="opacity:1" fill="#000000" d="M 314.5,359.5 C 327.833,359.5 341.167,359.5 354.5,359.5C 354.5,372.833 354.5,386.167 354.5,399.5C 341.167,399.5 327.833,399.5 314.5,399.5C 314.5,386.167 314.5,372.833 314.5,359.5 Z"/></g>
<g><path style="opacity:1" fill="#5e350d" d="M 362.5,359.5 C 375.833,359.5 389.167,359.5 402.5,359.5C 402.5,372.833 402.5,386.167 402.5,399.5C 389.167,399.5 375.833,399.5 362.5,399.5C 362.5,386.167 362.5,372.833 362.5,359.5 Z"/></g>
<g><path style="opacity:1" fill="#70982b" d="M 410.5,359.5 C 423.833,359.5 437.167,359.5 450.5,359.5C 450.5,372.833 450.5,386.167 450.5,399.5C 437.167,399.5 423.833,399.5 410.5,399.5C 410.5,386.167 410.5,372.833 410.5,359.5 Z"/></g>
<g><path style="opacity:1" fill="#000062" d="M 458.5,359.5 C 471.833,359.5 485.167,359.5 498.5,359.5C 498.5,372.833 498.5,386.167 498.5,399.5C 485.167,399.5 471.833,399.5 458.5,399.5C 458.5,386.167 458.5,372.833 458.5,359.5 Z"/></g>
<g><path style="opacity:1" fill="#000000" d="M 506.5,359.5 C 519.833,359.5 533.167,359.5 546.5,359.5C 546.5,372.833 546.5,386.167 546.5,399.5C 533.167,399.5 519.833,399.5 506.5,399.5C 506.5,386.167 506.5,372.833 506.5,359.5 Z"/></g>
<g><path style="opacity:1" fill="#000000" d="M 554.5,359.5 C 567.833,359.5 581.167,359.5 594.5,359.5C 594.5,372.833 594.5,386.167 594.5,399.5C 581.167,399.5 567.833,399.5 554.5,399.5C 554.5,386.167 554.5,372.833 554.5,359.5 Z"/></g>
<g><path style="opacity:1" fill="#000000" d="M 602.5,359.5 C 615.833,359.5 629.167,359.5 642.5,359.5C 642.5,372.833 642.5,386.167 642.5,399.5C 629.167,399.5 615.833,399.5 602.5,399.5C 602.5,386.167 602.5,372.833 602.5,359.5 Z"/></g>
<g><path style="opacity:1" fill="#000000" d="M 650.5,359.5 C 663.833,359.5 677.167,359.5 690.5,359.5C 690.5,372.833 690.5,386.167 690.5,399.5C 677.167,399.5 663.833,399.5 650.5,399.5C 650.5,386.167 650.5,372.833 650.5,359.5 Z"/></g>
<g><path style="opacity:1" fill="#000000" d="M 698.5,359.5 C 711.833,359.5 725.167,359.5 738.5,359.5C 738.5,372.833 738.5,386.167 738.5,399.5C 725.167,399.5 711.833,399.5 698.5,399.5C 698.5,386.167 698.5,372.833 698.5,359.5 Z"/></g>
<g><path style="opacity:1" fill="#000000" d="M 746.5,359.5 C 759.833,359.5 773.167,359.5 786.5,359.5C 786.5,372.833 786.5,386.167 786.5,399.5C 773.167,399.5 759.833,399.5 746.5,399.5C 746.5,386.167 746.5,372.833 746.5,359.5 Z"/></g>
<g><path style="opacity:1" fill="#000000" d="M 794.5,359.5 C 807.833,359.5 821.167,359.5 834.5,359.5C 834.5,372.833 834.5,386.167 834.5,399.5C 821.167,399.5 807.833,399.5 794.5,399.5C 794.5,386.167 794.5,372.833 794.5,359.5 Z"/></g>
<g><path style="opacity:1" fill="#050505" d="M 39.5,405.5 C 56.9793,404.812 65.146,413.145 64,430.5C 59.8345,441.984 51.6679,446.817 39.5,445C 28.0159,440.835 23.1826,432.668 25,420.5C 27.3509,412.984 32.1842,407.984 39.5,405.5 Z"/></g>
<g><path style="opacity:1" fill="#050505" d="M 859.5,405.5 C 876.979,404.812 885.146,413.145 884,430.5C 879.835,441.984 871.668,446.817 859.5,445C 848.016,440.835 843.183,432.668 845,420.5C 847.351,412.984 852.184,407.984 859.5,405.5 Z"/></g>
<g><path style="opacity:1" fill="#000000" d="M 74.5,407.5 C 87.8333,407.5 101.167,407.5 114.5,407.5C 114.5,420.833 114.5,434.167 114.5,447.5C 101.167,447.5 87.8333,447.5 74.5,447.5C 74.5,434.167 74.5,420.833 74.5,407.5 Z"/></g>
<g><path style="opacity:1" fill="#000000" d="M 122.5,407.5 C 135.833,407.5 149.167,407.5 162.5,407.5C 162.5,420.833 162.5,434.167 162.5,447.5C 149.167,447.5 135.833,447.5 122.5,447.5C 122.5,434.167 122.5,420.833 122.5,407.5 Z"/></g>
<g><path style="opacity:1" fill="#000000" d="M 170.5,407.5 C 183.833,407.5 197.167,407.5 210.5,407.5C 210.5,420.833 210.5,434.167 210.5,447.5C 197.167,447.5 183.833,447.5 170.5,447.5C 170.5,434.167 170.5,420.833 170.5,407.5 Z"/></g>
<g><path style="opacity:1" fill="#000000" d="M 218.5,407.5 C 231.833,407.5 245.167,407.5 258.5,407.5C 258.5,420.833 258.5,434.167 258.5,447.5C 245.167,447.5 231.833,447.5 218.5,447.5C 218.5,434.167 218.5,420.833 218.5,407.5 Z"/></g>
<g><path style="opacity:1" fill="#000000" d="M 266.5,407.5 C 279.833,407.5 293.167,407.5 306.5,407.5C 306.5,420.833 306.5,434.167 306.5,447.5C 293.167,447.5 279.833,447.5 266.5,447.5C 266.5,434.167 266.5,420.833 266.5,407.5 Z"/></g>
<g><path style="opacity:1" fill="#000000" d="M 314.5,407.5 C 327.833,407.5 341.167,407.5 354.5,407.5C 354.5,420.833 354.5,434.167 354.5,447.5C 341.167,447.5 327.833,447.5 314.5,447.5C 314.5,434.167 314.5,420.833 314.5,407.5 Z"/></g>
<g><path style="opacity:1" fill="#2e1a03" d="M 362.5,407.5 C 375.833,407.5 389.167,407.5 402.5,407.5C 402.5,420.833 402.5,434.167 402.5,447.5C 389.167,447.5 375.833,447.5 362.5,447.5C 362.5,434.167 362.5,420.833 362.5,407.5 Z"/></g>
<g><path style="opacity:1" fill="#67c93a" d="M 410.5,407.5 C 423.833,407.5 437.167,407.5 450.5,407.5C 450.5,420.833 450.5,434.167 450.5,447.5C 437.167,447.5 423.833,447.5 410.5,447.5C 410.5,434.167 410.5,420.833 410.5,407.5 Z"/></g>
<g><path style="opacity:1" fill="#000031" d="M 458.5,407.5 C 471.833,407.5 485.167,407.5 498.5,407.5C 498.5,420.833 498.5,434.167 498.5,447.5C 485.167,447.5 471.833,447.5 458.5,447.5C 458.5,434.167 458.5,420.833 458.5,407.5 Z"/></g>
<g><path style="opacity:1" fill="#000000" d="M 506.5,407.5 C 519.833,407.5 533.167,407.5 546.5,407.5C 546.5,420.833 546.5,434.167 546.5,447.5C 533.167,447.5 519.833,447.5 506.5,447.5C 506.5,434.167 506.5,420.833 506.5,407.5 Z"/></g>
<g><path style="opacity:1" fill="#000000" d="M 554.5,407.5 C 567.833,407.5 581.167,407.5 594.5,407.5C 594.5,420.833 594.5,434.167 594.5,447.5C 581.167,447.5 567.833,447.5 554.5,447.5C 554.5,434.167 554.5,420.833 554.5,407.5 Z"/></g>
<g><path style="opacity:1" fill="#000000" d="M 602.5,407.5 C 615.833,407.5 629.167,407.5 642.5,407.5C 642.5,420.833 642.5,434.167 642.5,447.5C 629.167,447.5 615.833,447.5 602.5,447.5C 602.5,434.167 602.5,420.833 602.5,407.5 Z"/></g>
<g><path style="opacity:1" fill="#000000" d="M 650.5,407.5 C 663.833,407.5 677.167,407.5 690.5,407.5C 690.5,420.833 690.5,434.167 690.5,447.5C 677.167,447.5 663.833,447.5 650.5,447.5C 650.5,434.167 650.5,420.833 650.5,407.5 Z"/></g>
<g><path style="opacity:1" fill="#000000" d="M 698.5,407.5 C 711.833,407.5 725.167,407.5 738.5,407.5C 738.5,420.833 738.5,434.167 738.5,447.5C 725.167,447.5 711.833,447.5 698.5,447.5C 698.5,434.167 698.5,420.833 698.5,407.5 Z"/></g>
<g><path style="opacity:1" fill="#000000" d="M 746.5,407.5 C 759.833,407.5 773.167,407.5 786.5,407.5C 786.5,420.833 786.5,434.167 786.5,447.5C 773.167,447.5 759.833,447.5 746.5,447.5C 746.5,434.167 746.5,420.833 746.5,407.5 Z"/></g>
<g><path style="opacity:1" fill="#000000" d="M 794.5,407.5 C 807.833,407.5 821.167,407.5 834.5,407.5C 834.5,420.833 834.5,434.167 834.5,447.5C 821.167,447.5 807.833,447.5 794.5,447.5C 794.5,434.167 794.5,420.833 794.5,407.5 Z"/></g>
<g><path style="opacity:1" fill="#050505" d="M 87.5,453.5 C 104.979,452.812 113.146,461.145 112,478.5C 107.835,489.984 99.6679,494.817 87.5,493C 76.0159,488.835 71.1826,480.668 73,468.5C 75.3509,460.984 80.1842,455.984 87.5,453.5 Z"/></g>
<g><path style="opacity:1" fill="#050505" d="M 136.5,453.5 C 153.979,452.812 162.146,461.145 161,478.5C 156.835,489.984 148.668,494.817 136.5,493C 125.016,488.835 120.183,480.668 122,468.5C 124.351,460.984 129.184,455.984 136.5,453.5 Z"/></g>
<g><path style="opacity:1" fill="#050505" d="M 184.5,453.5 C 201.979,452.812 210.146,461.145 209,478.5C 204.835,489.984 196.668,494.817 184.5,493C 173.016,488.835 168.183,480.668 170,468.5C 172.351,460.984 177.184,455.984 184.5,453.5 Z"/></g>
<g><path style="opacity:1" fill="#050505" d="M 232.5,453.5 C 249.979,452.812 258.146,461.145 257,478.5C 252.835,489.984 244.668,494.817 232.5,493C 221.016,488.835 216.183,480.668 218,468.5C 220.351,460.984 225.184,455.984 232.5,453.5 Z"/></g>
<g><path style="opacity:1" fill="#050505" d="M 281.5,453.5 C 298.979,452.812 307.146,461.145 306,478.5C 301.835,489.984 293.668,494.817 281.5,493C 270.016,488.835 265.183,480.668 267,468.5C 269.351,460.984 274.184,455.984 281.5,453.5 Z"/></g>
<g><path style="opacity:1" fill="#050505" d="M 329.5,453.5 C 346.979,452.812 355.146,461.145 354,478.5C 349.835,489.984 341.668,494.817 329.5,493C 318.016,488.835 313.183,480.668 315,468.5C 317.351,460.984 322.184,455.984 329.5,453.5 Z"/></g>
<g><path style="opacity:1" fill="#050505" d="M 378.5,453.5 C 395.979,452.812 404.146,461.145 403,478.5C 398.835,489.984 390.668,494.817 378.5,493C 367.016,488.835 362.183,480.668 364,468.5C 366.351,460.984 371.184,455.984 378.5,453.5 Z"/></g>
<g><path style="opacity:1" fill="#77fb4f" d="M 426.5,453.5 C 443.979,452.812 452.146,461.145 451,478.5C 446.835,489.984 438.668,494.817 426.5,493C 415.016,488.835 410.183,480.668 412,468.5C 414.351,460.984 419.184,455.984 426.5,453.5 Z"/></g>
<g><path style="opacity:1" fill="#050505" d="M 474.5,453.5 C 491.979,452.812 500.146,461.145 499,478.5C 494.835,489.984 486.668,494.817 474.5,493C 463.016,488.835 458.183,480.668 460,468.5C 462.351,460.984 467.184,455.984 474.5,453.5 Z"/></g>
<g><path style="opacity:1" fill="#050505" d="M 523.5,453.5 C 540.979,452.812 549.146,461.145 548,478.5C 543.835,489.984 535.668,494.817 523.5,493C 512.016,488.835 507.183,480.668 509,468.5C 511.351,460.984 516.184,455.984 523.5,453.5 Z"/></g>
<g><path style="opacity:1" fill="#050505" d="M 571.5,453.5 C 588.979,452.812 597.146,461.145 596,478.5C 591.835,489.984 583.668,494.817 571.5,493C 560.016,488.835 555.183,480.668 557,468.5C 559.351,460.984 564.184,455.984 571.5,453.5 Z"/></g>
<g><path style="opacity:1" fill="#050505" d="M 620.5,453.5 C 637.979,452.812 646.146,461.145 645,478.5C 640.835,489.984 632.668,494.817 620.5,493C 609.016,488.835 604.183,480.668 606,468.5C 608.351,460.984 613.184,455.984 620.5,453.5 Z"/></g>
<g><path style="opacity:1" fill="#050505" d="M 668.5,453.5 C 685.979,452.812 694.146,461.145 693,478.5C 688.835,489.984 680.668,494.817 668.5,493C 657.016,488.835 652.183,480.668 654,468.5C 656.351,460.984 661.184,455.984 668.5,453.5 Z"/></g>
<g><path style="opacity:1" fill="#050505" d="M 716.5,453.5 C 733.979,452.812 742.146,461.145 741,478.5C 736.835,489.984 728.668,494.817 716.5,493C 705.016,488.835 700.183,480.668 702,468.5C 704.351,460.984 709.184,455.984 716.5,453.5 Z"/></g>
<g><path style="opacity:1" fill="#050505" d="M 765.5,453.5 C 782.979,452.812 791.146,461.145 790,478.5C 785.835,489.984 777.668,494.817 765.5,493C 754.016,488.835 749.183,480.668 751,468.5C 753.351,460.984 758.184,455.984 765.5,453.5 Z"/></g>
<g><path style="opacity:1" fill="#050505" d="M 813.5,453.5 C 830.979,452.812 839.146,461.145 838,478.5C 833.835,489.984 825.668,494.817 813.5,493C 802.016,488.835 797.183,480.668 799,468.5C 801.351,460.984 806.184,455.984 813.5,453.5 Z"/></g>
</svg>
